#Comment line ignore any data following # character 
#Hierarchical Translation and Rotation (.htr) file 
[Header]	
#Header keywords are followed by a single value 
FileType HTR		#Single word string
DataType HTRS		#Translation followed by rotation and scale data
FileVersion 1		#integer
NumSegments 64		#integer
NumFrames 3		#integer
DataFrameRate 30		#integer, data frame rate in this file
EulerRotationOrder ZYX
CalibrationUnits mm
RotationUnits Degrees
GlobalAxisofGravity Y
BoneLengthAxis Y
ScaleFactor 1.00
[SegmentNames&Hierarchy]
#CHILD	PARENT
Pinger_Root GLOBAL
Pelvis Pinger_Root
L_Hip Pelvis
R_Hip Pelvis
Rear_Leg01 Pelvis
Spine1 Pelvis
L_Leg01 L_Hip
L_Leg02 L_Leg01
L_Leg03 L_Leg02
L_Foot L_Leg03
L_Toe1_01 L_Foot
L_Toe2_01 L_Foot
L_Toe3_01 L_Foot
planeAlignerLeft L_Foot
L_Toe1_02 L_Toe1_01
L_Toe1_03 L_Toe1_02
L_Toe2_02 L_Toe2_01
L_Toe2_03 L_Toe2_02
L_Toe3_02 L_Toe3_01
L_Toe3_03 L_Toe3_02
planeLockWeightLeft planeAlignerLeft
R_Leg01 R_Hip
R_Leg02 R_Leg01
R_Leg03 R_Leg02
R_Foot R_Leg03
planeAlignerRight R_Foot
R_Toe1_01 R_Foot
R_Toe2_01 R_Foot
R_Toe3_01 R_Foot
planeLockWeightRight planeAlignerRight
R_Toe1_02 R_Toe1_01
R_Toe1_03 R_Toe1_02
R_Toe2_02 R_Toe2_01
R_Toe2_03 R_Toe2_02
R_Toe3_02 R_Toe3_01
R_Toe3_03 R_Toe3_02
Rear_Leg02 Rear_Leg01
Rear_Leg03 Rear_Leg02
Rear_Leg04 Rear_Leg03
Rear_Foot Rear_Leg04
planeAlignerCenter Rear_Foot
Rear_Toe1_01 Rear_Foot
Rear_Toe2_01 Rear_Foot
Rear_Toe3_01 Rear_Foot
planeLockWeightCenter planeAlignerCenter
Rear_Toe1_02 Rear_Toe1_01
Rear_Toe1_03 Rear_Toe1_02
Rear_Toe2_02 Rear_Toe2_01
Rear_Toe2_03 Rear_Toe2_02
Rear_Toe3_02 Rear_Toe3_01
Rear_Toe3_03 Rear_Toe3_02
Back_Bone Spine1
Head Spine1
Motor_Bone Back_Bone
Ping_Mechanism Back_Bone
BN_LookIK Head
bottomMouth Head
L_Mouth01 Head
L_mouthFront Head
mouthGun Head
R_Mouth01 Head
R_mouthFront Head
TopMouth Head
weapon_bone Head
[BasePosition]
#SegmentName Tx, Ty, Tz, Rx, Ry, Rz, BoneLength
Pinger_Root 0.000000 0.000000 0.000000 -90.000000 0.000000 0.000000 10.000000 
Pelvis 0.000000 0.000000 0.000000 0.000000 0.000000 0.000000 10.000000 
L_Hip 0.000000 0.000000 0.000000 0.000000 0.000000 0.000000 10.000000 
R_Hip 0.000000 0.000000 0.000000 0.000000 0.000000 0.000000 10.000000 
Rear_Leg01 0.000000 0.000000 0.000000 0.000000 0.000000 0.000000 10.000000 
Spine1 0.000000 0.000000 0.000000 0.000000 0.000000 0.000000 10.000000 
L_Leg01 0.000000 0.000000 0.000000 0.000000 0.000000 0.000000 10.000000 
L_Leg02 0.000000 0.000000 0.000000 0.000000 0.000000 0.000000 10.000000 
L_Leg03 0.000000 0.000000 0.000000 0.000000 0.000000 0.000000 10.000000 
L_Foot 0.000000 0.000000 0.000000 0.000000 0.000000 0.000000 10.000000 
L_Toe1_01 0.000000 0.000000 0.000000 0.000000 0.000000 0.000000 10.000000 
L_Toe2_01 0.000000 0.000000 0.000000 0.000000 0.000000 0.000000 10.000000 
L_Toe3_01 0.000000 0.000000 0.000000 0.000000 0.000000 0.000000 10.000000 
planeAlignerLeft 0.000000 0.000000 0.000000 0.000000 0.000000 0.000000 10.000000 
L_Toe1_02 0.000000 0.000000 0.000000 0.000000 0.000000 0.000000 10.000000 
L_Toe1_03 0.000000 0.000000 0.000000 0.000000 0.000000 0.000000 10.000000 
L_Toe2_02 0.000000 0.000000 0.000000 0.000000 0.000000 0.000000 10.000000 
L_Toe2_03 0.000000 0.000000 0.000000 0.000000 0.000000 0.000000 10.000000 
L_Toe3_02 0.000000 0.000000 0.000000 0.000000 0.000000 0.000000 10.000000 
L_Toe3_03 0.000000 0.000000 0.000000 0.000000 0.000000 0.000000 10.000000 
planeLockWeightLeft 0.000000 0.000000 0.000000 0.000000 0.000000 0.000000 10.000000 
R_Leg01 0.000000 0.000000 0.000000 0.000000 0.000000 0.000000 10.000000 
R_Leg02 0.000000 0.000000 0.000000 0.000000 0.000000 0.000000 10.000000 
R_Leg03 0.000000 0.000000 0.000000 0.000000 0.000000 0.000000 10.000000 
R_Foot 0.000000 0.000000 0.000000 0.000000 0.000000 0.000000 10.000000 
planeAlignerRight 0.000000 0.000000 0.000000 0.000000 0.000000 0.000000 10.000000 
R_Toe1_01 0.000000 0.000000 0.000000 0.000000 0.000000 0.000000 10.000000 
R_Toe2_01 0.000000 0.000000 0.000000 0.000000 0.000000 0.000000 10.000000 
R_Toe3_01 0.000000 0.000000 0.000000 0.000000 0.000000 0.000000 10.000000 
planeLockWeightRight 0.000000 0.000000 0.000000 0.000000 0.000000 0.000000 10.000000 
R_Toe1_02 0.000000 0.000000 0.000000 0.000000 0.000000 0.000000 10.000000 
R_Toe1_03 0.000000 0.000000 0.000000 0.000000 0.000000 0.000000 10.000000 
R_Toe2_02 0.000000 0.000000 0.000000 0.000000 0.000000 0.000000 10.000000 
R_Toe2_03 0.000000 0.000000 0.000000 0.000000 0.000000 0.000000 10.000000 
R_Toe3_02 0.000000 0.000000 0.000000 0.000000 0.000000 0.000000 10.000000 
R_Toe3_03 0.000000 0.000000 0.000000 0.000000 0.000000 0.000000 10.000000 
Rear_Leg02 0.000000 0.000000 0.000000 0.000000 0.000000 0.000000 10.000000 
Rear_Leg03 0.000000 0.000000 0.000000 0.000000 0.000000 0.000000 10.000000 
Rear_Leg04 0.000000 0.000000 0.000000 0.000000 0.000000 0.000000 10.000000 
Rear_Foot 0.000000 0.000000 0.000000 0.000000 0.000000 0.000000 10.000000 
planeAlignerCenter 0.000000 0.000000 0.000000 0.000000 0.000000 0.000000 10.000000 
Rear_Toe1_01 0.000000 0.000000 0.000000 0.000000 0.000000 0.000000 10.000000 
Rear_Toe2_01 0.000000 0.000000 0.000000 0.000000 0.000000 0.000000 10.000000 
Rear_Toe3_01 0.000000 0.000000 0.000000 0.000000 0.000000 0.000000 10.000000 
planeLockWeightCenter 0.000000 0.000000 0.000000 0.000000 0.000000 0.000000 10.000000 
Rear_Toe1_02 0.000000 0.000000 0.000000 0.000000 0.000000 0.000000 10.000000 
Rear_Toe1_03 0.000000 0.000000 0.000000 0.000000 0.000000 0.000000 10.000000 
Rear_Toe2_02 0.000000 0.000000 0.000000 0.000000 0.000000 0.000000 10.000000 
Rear_Toe2_03 0.000000 0.000000 0.000000 0.000000 0.000000 0.000000 10.000000 
Rear_Toe3_02 0.000000 0.000000 0.000000 0.000000 0.000000 0.000000 10.000000 
Rear_Toe3_03 0.000000 0.000000 0.000000 0.000000 0.000000 0.000000 10.000000 
Back_Bone 0.000000 0.000000 0.000000 0.000000 0.000000 0.000000 10.000000 
Head 0.000000 0.000000 0.000000 0.000000 0.000000 0.000000 10.000000 
Motor_Bone 0.000000 0.000000 0.000000 0.000000 0.000000 0.000000 10.000000 
Ping_Mechanism 0.000000 0.000000 0.000000 0.000000 0.000000 0.000000 10.000000 
BN_LookIK 0.000000 0.000000 0.000000 0.000000 0.000000 0.000000 10.000000 
bottomMouth 0.000000 0.000000 0.000000 0.000000 0.000000 0.000000 10.000000 
L_Mouth01 0.000000 0.000000 0.000000 0.000000 0.000000 0.000000 10.000000 
L_mouthFront 0.000000 0.000000 0.000000 0.000000 0.000000 0.000000 10.000000 
mouthGun 0.000000 0.000000 0.000000 0.000000 0.000000 0.000000 10.000000 
R_Mouth01 0.000000 0.000000 0.000000 0.000000 0.000000 0.000000 10.000000 
R_mouthFront 0.000000 0.000000 0.000000 0.000000 0.000000 0.000000 10.000000 
TopMouth 0.000000 0.000000 0.000000 0.000000 0.000000 0.000000 10.000000 
weapon_bone 0.000000 0.000000 0.000000 0.000000 0.000000 0.000000 10.000000 
#Beginning of Data. Separated by tabs
#Fr	Tx	Ty	Tz	Rx	Ry	Rz	SF
[Pinger_Root]
159 0.000000 0.000000 0.000000 -0.000075 -0.000000 -0.000020 0.000000
160 0.000000 0.000000 0.000000 -0.000075 -0.000000 -0.000020 0.000000
161 0.000000 0.000000 0.000000 -0.000075 -0.000000 -0.000020 0.000000
[Pelvis]
159 -1342.216675 11050.909180 -3328.818115 -79.612526 -71.071678 75.072098 11619.171875
160 -1366.318848 10954.861328 -3266.922363 -74.199051 -70.498253 70.407524 11512.975586
161 -1393.699951 10905.278320 -3205.382080 -68.952675 -69.448883 65.987045 11451.723633
[L_Hip]
159 5.766392 125.831482 872.656799 -178.253342 -81.787758 87.381340 881.701050
160 5.766392 125.831482 872.656799 -178.253311 -81.787712 87.381248 881.701050
161 5.766392 125.831482 872.656799 -178.253311 -81.787758 87.381340 881.701050
[R_Hip]
159 5.765438 125.836372 -872.654907 -1.746678 81.787712 87.381248 881.699829
160 5.765438 125.836372 -872.654907 -1.746713 81.787666 87.381149 881.699829
161 5.765438 125.836372 -872.654907 -1.746690 81.787712 87.381248 881.699829
[Rear_Leg01]
159 -192.298416 -925.602966 -0.001907 158.442932 7.542951 -140.582565 945.367432
160 -192.298416 -925.602966 -0.001907 160.662201 8.161416 -142.798065 945.367432
161 -192.298416 -925.602966 -0.001907 162.924362 9.060161 -144.715134 945.367432
[Spine1]
159 290.604584 5.007505 0.000477 4.546651 -3.941207 6.986328 290.647736
160 290.604584 5.007505 0.000477 3.353737 -5.488451 6.963596 290.647736
161 290.604584 5.007505 0.000477 2.058311 -7.195376 6.760604 290.647736
[L_Leg01]
159 761.932007 -0.002384 -0.069261 54.861389 -47.470917 -48.318314 761.932068
160 761.932007 -0.002384 -0.069261 56.456650 -46.981781 -53.920479 761.932068
161 761.932007 -0.002384 -0.069261 58.681946 -46.197189 -60.017548 761.932068
[L_Leg02]
159 1441.140503 -0.000954 -0.000715 8.047647 2.627546 -154.883942 1441.140503
160 1441.140503 -0.000954 -0.000715 7.265559 2.063828 -146.536484 1441.140503
161 1441.140503 -0.000954 -0.000715 6.410112 1.619560 -138.184509 1441.140503
[L_Leg03]
159 1686.963989 -0.000715 -0.000954 -0.106320 0.064466 139.537827 1686.963989
160 1686.963989 -0.000715 -0.000954 -0.100804 0.060182 137.985550 1686.963989
161 1686.963989 -0.000715 -0.000954 -0.095173 0.056048 136.433243 1686.963989
[L_Foot]
159 3041.570068 -30.715107 11.297464 7.743982 11.538404 43.727833 3041.746094
160 3041.570068 -30.715107 11.297464 8.723371 11.983103 39.427258 3041.746094
161 3041.570068 -30.715107 11.297464 9.494189 12.337932 36.037964 3041.746094
[L_Toe1_01]
159 -188.216690 -224.732346 -21.137953 100.234322 -0.681035 171.224030 293.899567
160 -188.216690 -224.732346 -21.137953 100.195328 -0.787091 171.433304 293.899567
161 -188.216690 -224.732346 -21.137953 100.155922 -0.893006 171.642654 293.899567
[L_Toe2_01]
159 200.746536 -219.926590 148.838394 -91.339119 -22.916529 -44.683010 332.896027
160 200.746536 -219.926590 148.838394 -91.145172 -22.839737 -45.292381 332.896027
161 200.746536 -219.926590 148.838394 -90.952209 -22.761044 -45.901108 332.896027
[L_Toe3_01]
159 188.832520 -219.859131 -191.078659 -107.108887 5.223182 -57.594643 347.140900
160 188.832520 -219.859131 -191.078659 -107.011253 4.967578 -58.003689 347.140900
161 188.832520 -219.859131 -191.078659 -106.911804 4.712672 -58.413010 347.140900
[planeAlignerLeft]
159 0.812531 -811.448792 -0.314951 0.000000 -90.000000 -90.001900 811.449280
160 0.812531 -811.448792 -0.314951 0.000000 -90.000000 -90.001900 811.449280
161 0.812531 -811.448792 -0.314951 0.000000 -90.000000 -90.001900 811.449280
[L_Toe1_02]
159 413.761139 0.000477 0.000000 0.001454 -17.589903 0.001454 413.761139
160 413.761139 0.000477 0.000000 0.001456 -17.439812 0.001456 413.761139
161 413.761139 0.000477 0.000000 0.001457 -17.289719 0.001457 413.761139
[L_Toe1_03]
159 464.317322 0.000358 -0.000089 -179.993988 81.525345 -179.990479 464.317322
160 464.317322 0.000358 -0.000089 -179.994446 80.979080 -179.990936 464.317322
161 464.317322 0.000358 -0.000089 -179.994873 80.432869 -179.991364 464.317322
[L_Toe2_02]
159 342.235809 -0.000477 0.000238 0.001181 -77.264343 0.001181 342.235809
160 342.235809 -0.000477 0.000238 0.001181 -76.920746 0.001181 342.235809
161 342.235809 -0.000477 0.000238 0.001182 -76.577179 0.001182 342.235809
[L_Toe2_03]
159 420.210846 -0.000715 0.000000 -179.995758 79.011978 -179.992249 420.210846
160 420.210846 -0.000715 0.000000 -179.994934 80.322838 -179.991425 420.210846
161 420.210846 -0.000715 0.000000 -179.993637 81.879654 -179.990128 420.210846
[L_Toe3_02]
159 329.270111 0.000954 0.000000 0.001179 -78.598114 0.001179 329.270111
160 329.270111 0.000954 0.000000 0.001180 -78.237602 0.001180 329.270111
161 329.270111 0.000954 0.000000 0.001180 -77.720558 0.001180 329.270111
[L_Toe3_03]
159 439.137451 -0.001907 0.000954 -179.988068 85.187286 -179.984558 439.137451
160 439.137451 -0.001907 0.000954 -179.982239 86.625420 -179.978729 439.137451
161 439.137451 -0.001907 0.000954 -179.967728 88.064072 -179.964233 439.137451
[planeLockWeightLeft]
159 -0.000954 0.000238 -0.000305 -0.011826 -0.004376 0.005620 0.001029
160 -0.000954 0.000238 -0.000305 -0.011826 -0.004376 0.005620 0.001029
161 -0.000954 0.000238 -0.000305 -0.011826 -0.004376 0.005620 0.001029
[R_Leg01]
159 761.455627 -0.001907 -0.000358 175.958572 -79.477875 -30.098577 761.455688
160 761.455627 -0.001907 -0.000358 -177.077164 -78.789520 -39.513615 761.455688
161 761.455627 -0.001907 -0.000358 -177.572495 -77.844978 -41.634682 761.455688
[R_Leg02]
159 1441.140625 0.000000 -0.000238 -1.025983 0.352994 170.294556 1441.140625
160 1441.140625 0.000000 -0.000238 -1.032761 0.353344 169.832840 1441.140625
161 1441.140625 0.000000 -0.000238 -1.031701 0.350252 170.036438 1441.140625
[R_Leg03]
159 1686.963989 0.000954 0.001431 -0.055411 0.012081 95.671776 1686.963989
160 1686.963989 0.000954 0.001431 -0.054297 0.010895 95.747360 1686.963989
161 1686.963989 0.000954 0.001431 -0.053185 0.009707 95.822960 1686.963989
[R_Foot]
159 3041.560059 -30.531288 -11.204481 31.908335 -22.748802 94.651421 3041.734131
160 3041.560059 -30.531288 -11.204481 32.472893 -22.846342 92.681824 3041.734131
161 3041.560059 -30.531288 -11.204481 33.197109 -22.898304 91.606461 3041.734131
[planeAlignerRight]
159 -0.635147 -812.270569 -0.364304 0.000000 -89.960434 -90.005180 812.270874
160 -0.635147 -812.270569 -0.364304 0.000000 -89.960434 -90.005180 812.270874
161 -0.635147 -812.270569 -0.364304 0.000000 -89.960434 -90.005180 812.270874
[R_Toe1_01]
159 -188.383347 -224.864899 21.052242 91.738609 1.974295 -173.924957 294.101532
160 -188.383347 -224.864899 21.052242 91.764343 1.991068 -173.750946 294.101532
161 -188.383347 -224.864899 21.052242 91.790123 2.007763 -173.576935 294.101532
[R_Toe2_01]
159 200.637817 -220.002121 -148.787384 -96.085999 14.891132 -33.764992 332.857574
160 200.637817 -220.002121 -148.787384 -96.081779 14.880730 -33.950005 332.857574
161 200.637817 -220.002121 -148.787384 -96.077530 14.870352 -34.135017 332.857574
[R_Toe3_01]
159 188.606735 -220.092957 191.126343 -78.483727 -19.329344 -35.984566 347.192566
160 188.606735 -220.092957 191.126343 -78.460457 -19.260315 -36.151756 347.192566
161 188.606735 -220.092957 191.126343 -78.415199 -19.188829 -36.391357 347.192566
[planeLockWeightRight]
159 -0.000477 0.000000 0.000000 -0.011823 -0.004379 -0.000027 0.000477
160 -0.000477 0.000000 0.000000 -0.011823 -0.004379 -0.000027 0.000477
161 -0.000477 0.000000 0.000000 -0.011823 -0.004379 -0.000027 0.000477
[R_Toe1_02]
159 413.762085 0.000477 -0.000119 0.001425 -20.893400 0.001425 413.762085
160 413.762085 0.000477 -0.000119 0.001425 -20.893787 0.001425 413.762085
161 413.762085 0.000477 -0.000119 0.001425 -20.894176 0.001425 413.762085
[R_Toe1_03]
159 464.317810 0.000000 0.001088 -0.028022 87.492973 -0.024525 464.317810
160 464.317810 0.000000 0.001088 -0.027564 87.448631 -0.024067 464.317810
161 464.317810 0.000000 0.001088 -0.027122 87.404068 -0.023625 464.317810
[R_Toe2_02]
159 342.234741 -0.000954 0.000238 -0.002333 -79.540817 -0.002333 342.234741
160 342.234741 -0.000954 0.000238 -0.002333 -79.513527 -0.002333 342.234741
161 342.234741 -0.000954 0.000238 -0.002333 -79.486176 -0.002333 342.234741
[R_Toe2_03]
159 420.210846 0.000715 -0.000268 -179.995438 66.084167 -179.999008 420.210846
160 420.210846 0.000715 -0.000268 -179.995422 66.315987 -179.998978 420.210846
161 420.210846 0.000715 -0.000268 -179.995392 66.547791 -179.998962 420.210846
[R_Toe3_02]
159 329.270355 -0.000477 -0.000954 0.001176 -83.025803 0.001176 329.270355
160 329.270355 -0.000477 -0.000954 0.001176 -83.000023 0.001176 329.270355
161 329.270355 -0.000477 -0.000954 0.001176 -82.974236 0.001176 329.270355
[R_Toe3_03]
159 439.137939 0.000238 0.001431 -179.999084 65.490944 -179.995499 439.137939
160 439.137939 0.000238 0.001431 -179.999069 65.674492 -179.995483 439.137939
161 439.137939 0.000238 0.001431 -179.999039 65.858025 -179.995468 439.137939
[Rear_Leg02]
159 1162.777710 -0.029802 0.005960 22.119759 2.443318 -162.699402 1162.777710
160 1162.777710 -0.029802 0.005960 21.900700 3.259753 -165.082489 1162.777710
161 1162.777710 -0.029802 0.005960 21.830267 2.883796 -164.662247 1162.777710
[Rear_Leg03]
159 607.192505 -0.013351 -0.073195 0.009852 -0.006253 81.160240 607.192505
160 607.192505 -0.013351 -0.073195 0.009860 -0.006240 81.010544 607.192505
161 607.192505 -0.013351 -0.073195 0.009856 -0.006245 81.075630 607.192505
[Rear_Leg04]
159 995.874512 -0.020504 -0.011921 -0.039545 -0.006841 122.037926 995.874573
160 995.874512 -0.020504 -0.011921 -0.039641 -0.006258 123.727142 995.874573
161 995.874512 -0.020504 -0.011921 -0.039600 -0.006510 122.996765 995.874573
[Rear_Foot]
159 3096.176270 -0.067472 -0.041425 -138.981873 57.160736 41.184597 3096.176270
160 3096.176270 -0.067472 -0.041425 -136.890686 58.391689 42.290310 3096.176270
161 3096.176270 -0.067472 -0.041425 -135.318298 59.335594 42.591660 3096.176270
[planeAlignerCenter]
159 0.350077 0.966311 -838.790894 0.000009 0.000003 -179.999985 838.791565
160 0.350077 0.966311 -838.790894 0.000009 0.000003 -179.999985 838.791565
161 0.350077 0.966311 -838.790894 0.000009 0.000003 -179.999985 838.791565
[Rear_Toe1_01]
159 0.653352 83.966492 -371.173737 -0.038464 36.386101 89.833214 380.553192
160 0.653352 83.966492 -371.173737 -0.029178 36.881187 89.849792 380.553192
161 0.653352 83.966492 -371.173737 -0.022741 37.294952 89.865097 380.553192
[Rear_Toe2_01]
159 178.200760 -294.826019 -362.060547 -5.656652 31.989969 -73.212990 499.765686
160 178.200760 -294.826019 -362.060547 -5.693150 32.246979 -73.216743 499.765686
161 178.200760 -294.826019 -362.060547 -5.729771 32.504002 -73.220718 499.765686
[Rear_Toe3_01]
159 -153.359680 -308.780914 -362.060852 4.163380 31.997766 -109.137436 499.952881
160 -153.359680 -308.780914 -362.060852 4.187099 32.220039 -109.148163 499.952881
161 -153.359680 -308.780914 -362.060852 4.210826 32.442314 -109.158791 499.952881
[planeLockWeightCenter]
159 -0.000062 0.000238 0.000000 -0.011814 -0.004373 -0.000015 0.000246
160 -0.000062 0.000238 0.000000 -0.011814 -0.004373 -0.000015 0.000246
161 -0.000062 0.000238 0.000000 -0.011814 -0.004373 -0.000015 0.000246
[Rear_Toe1_02]
159 379.707825 0.194073 0.000477 0.001119 -33.491802 0.002042 379.707855
160 379.707825 0.194073 0.000477 0.000907 -33.436306 0.002752 379.707855
161 379.707825 0.194073 0.000477 0.000695 -33.380810 0.003460 379.707855
[Rear_Toe1_03]
159 500.129700 0.165701 0.000119 -0.004838 68.327263 -0.001277 500.129761
160 500.129700 0.165701 0.000119 -0.004729 67.494141 -0.001163 500.129761
161 500.129700 0.165701 0.000119 -0.004627 66.660912 -0.001056 500.129761
[Rear_Toe2_02]
159 340.494507 0.000238 -0.000954 -0.012480 -86.643166 0.014051 340.494507
160 340.494507 0.000238 -0.000954 -0.019329 -86.646835 0.020511 340.494507
161 340.494507 0.000238 -0.000954 -0.026193 -86.650688 0.026987 340.494507
[Rear_Toe2_03]
159 433.103577 0.000000 0.000238 -179.993210 76.907822 -179.996719 433.103546
160 433.103577 0.000000 0.000238 -179.993179 76.985298 -179.996689 433.103546
161 433.103577 0.000000 0.000238 -179.993195 76.948433 -179.996704 433.103546
[Rear_Toe3_02]
159 340.494141 -0.000358 -0.000477 0.001174 -86.742981 0.001174 340.494171
160 340.494141 -0.000358 -0.000477 0.001174 -86.735359 0.001174 340.494171
161 340.494141 -0.000358 -0.000477 0.001174 -86.727684 0.001174 340.494171
[Rear_Toe3_03]
159 433.103577 0.001431 -0.000238 -179.996826 76.645584 -179.993301 433.103546
160 433.103577 0.001431 -0.000238 -179.996780 76.751640 -179.993256 433.103546
161 433.103577 0.001431 -0.000238 -179.996780 76.745308 -179.993256 433.103546
[Back_Bone]
159 1312.175781 -701.934692 0.000954 0.034134 0.000546 -92.446915 1488.125488
160 1312.175781 -701.934692 0.000954 0.037968 0.000445 -92.396957 1488.125488
161 1312.175781 -701.934692 0.000954 0.041801 0.000341 -92.347000 1488.125488
[Head]
159 1406.159424 809.709290 0.001431 -0.045132 -1.273826 6.430367 1622.625488
160 1406.159424 809.709290 0.001431 -0.075044 -1.076655 5.524303 1622.625488
161 1406.159424 809.709290 0.001431 -0.108069 -0.879980 4.618196 1622.625488
[Motor_Bone]
159 1158.364380 -417.834747 0.000477 -5.513623 1.191236 -104.796585 1231.419434
160 1158.364380 -417.834747 0.000477 -3.495488 0.583988 -105.401489 1231.419434
161 1158.364380 -417.834747 0.000477 0.251886 -0.541818 -106.527916 1231.419434
[Ping_Mechanism]
159 1295.092163 -449.705170 25.149738 0.000103 -0.000053 82.120995 1371.178589
160 1295.747681 -449.360046 33.405975 0.000103 -0.000053 82.120995 1371.860962
161 1298.076904 -448.892059 42.423977 0.000103 -0.000053 82.120995 1374.156982
[BN_LookIK]
159 193.241119 1380.371704 -0.002861 0.000000 89.965736 -31.038179 1393.832153
160 193.241119 1380.371704 -0.002861 0.000000 89.965736 -31.038179 1393.832153
161 193.241119 1380.371704 -0.002861 0.000000 89.965736 -31.038179 1393.832153
[bottomMouth]
159 -435.092926 615.759399 -0.000954 -0.000022 0.000016 73.527184 753.966492
160 -435.092926 615.759399 -0.000954 -0.000022 0.000016 73.527184 753.966492
161 -435.092926 615.759399 -0.000954 -0.000022 0.000016 73.527184 753.966492
[L_Mouth01]
159 554.440979 7.658243 838.222046 150.204178 23.759130 109.605339 1005.027161
160 554.440979 7.658243 838.222046 150.204178 23.759130 109.605339 1005.027161
161 554.440979 7.658243 838.222046 150.204178 23.759130 109.605339 1005.027161
[L_mouthFront]
159 551.629089 934.514771 339.150421 0.000081 2.804060 79.119301 1136.941284
160 551.629089 934.514771 339.150421 0.000081 2.804060 79.119301 1136.941284
161 551.629089 934.514771 339.150421 0.000081 2.804060 79.119301 1136.941284
[mouthGun]
159 55.332661 1627.420898 0.000000 0.000023 0.000009 -11.038128 1628.361328
160 55.332661 1627.420898 0.000000 0.000023 0.000009 -11.038128 1628.361328
161 55.332661 1627.420898 0.000000 0.000023 0.000009 -11.038128 1628.361328
[R_Mouth01]
159 554.442383 7.659197 -838.223938 29.795891 -23.759109 109.605331 1005.029541
160 554.442383 7.659197 -838.223938 29.795891 -23.759109 109.605331 1005.029541
161 554.442383 7.659197 -838.223938 29.795891 -23.759109 109.605331 1005.029541
[R_mouthFront]
159 551.629089 934.514282 -339.151367 0.000029 -2.803930 79.119133 1136.941162
160 551.629089 934.514282 -339.151367 0.000029 -2.803930 79.119133 1136.941162
161 551.629089 934.514282 -339.151367 0.000029 -2.803930 79.119133 1136.941162
[TopMouth]
159 461.269867 -56.106091 -0.008583 -0.000059 -0.000268 92.025169 464.669525
160 461.269867 -56.106091 -0.008583 -0.000059 -0.000268 92.025169 464.669525
161 461.269867 -56.106091 -0.008583 -0.000059 -0.000268 92.025169 464.669525
[weapon_bone]
159 -987.239868 1448.372803 0.001431 0.000000 89.965736 -31.038221 1752.833740
160 -987.239868 1448.372803 0.001431 0.000000 89.965736 -31.038221 1752.833740
161 -987.239868 1448.372803 0.001431 0.000000 89.965736 -31.038221 1752.833740
